<?xml version="1.0" encoding="UTF-8"?>
<svg xmlns="http://www.w3.org/2000/svg" xmlns:xlink="http://www.w3.org/1999/xlink" width="48pt" height="48pt" viewBox="0 0 48 48" version="1.1">
<g id="surface1">
<path style=" stroke:none;fill-rule:nonzero;fill:#FFB74D;fill-opacity:1;" d="M 24 14 C 20.691406 14 18 11.308594 18 8 C 18 4.691406 20.691406 2 24 2 C 27.308594 2 30 4.691406 30 8 C 30 11.308594 27.308594 14 24 14 "/>
<path style=" stroke:none;fill-rule:nonzero;fill:#FFB74D;fill-opacity:1;" d="M 15 24 L 15 32 L 18 34 L 19 38 L 20 46 L 28 46 L 29 38 L 30 34 L 33 32 L 33 24 C 33 19.582031 30 15 24 15 C 18 15 15 19.582031 15 24 "/>
<path style=" stroke:none;fill-rule:nonzero;fill:#4CAF50;fill-opacity:1;" d="M 30 24 L 33 24 C 33 19.582031 30 15 24 15 C 18 15 15 19.582031 15 24 L 18 24 L 18 34 L 30 34 Z "/>
<path style=" stroke:none;fill-rule:nonzero;fill:#3F51B5;fill-opacity:1;" d="M 18 31 L 30 31 L 30 38 L 18 38 Z "/>
<path style=" stroke:none;fill-rule:nonzero;fill:#1A237E;fill-opacity:1;" d="M 23 38 L 24 34 L 25 38 Z "/>
<path style=" stroke:none;fill-rule:nonzero;fill:#FFA726;fill-opacity:1;" d="M 23 38 L 25 38 L 25 46 L 23 46 Z "/>
<path style=" stroke:none;fill-rule:nonzero;fill:#2E7D32;fill-opacity:1;" d="M 18 22 L 15.214844 22 C 15.078125 22.660156 15 23.332031 15 24 L 18 24 Z "/>
<path style=" stroke:none;fill-rule:nonzero;fill:#2E7D32;fill-opacity:1;" d="M 30 22 L 30 24 L 33 24 C 33 23.332031 32.921875 22.660156 32.785156 22 Z "/>
<path style=" stroke:none;fill-rule:nonzero;fill:#2E7D32;fill-opacity:1;" d="M 24 15 C 22.429688 15 21.070313 15.320313 19.910156 15.863281 C 21.109375 16.578125 22.503906 17 24 17 C 25.496094 17 26.890625 16.578125 28.089844 15.863281 C 26.929688 15.320313 25.570313 15 24 15 Z "/>
</g>
</svg>
