<?xml version="1.0" encoding="UTF-8"?>
<svg xmlns="http://www.w3.org/2000/svg" xmlns:xlink="http://www.w3.org/1999/xlink" width="48pt" height="48pt" viewBox="0 0 48 48" version="1.1">
<g id="surface1">
<path style=" stroke:none;fill-rule:nonzero;fill:#78909C;fill-opacity:1;" d="M 25.96875 44 L 22.03125 44 C 20.910156 44 20 43.089844 20 41.96875 L 20 30 L 28 30 L 28 41.96875 C 28 43.089844 27.089844 44 25.96875 44 Z "/>
<path style=" stroke:none;fill-rule:nonzero;fill:#90A4AE;fill-opacity:1;" d="M 16 10.96875 L 16 5.03125 C 16 4.460938 16.460938 4 17.03125 4 L 30.96875 4 C 31.539063 4 32 4.460938 32 5.03125 L 32 10.96875 C 32 11.539063 31.539063 12 30.96875 12 L 17.03125 12 C 16.460938 12 16 11.539063 16 10.96875 Z M 12.261719 17.035156 C 11.730469 16.890625 11.179688 17.203125 11.035156 17.738281 L 8.203125 28.121094 C 6.9375 28.472656 6 29.621094 6 31 C 6 31.554688 6.449219 32 7 32 C 7.550781 32 8 31.554688 8 31 C 8 30.449219 8.449219 30 9 30 C 9.550781 30 10 30.449219 10 31 C 10 31.554688 10.449219 32 11 32 C 11.550781 32 12 31.554688 12 31 C 12 29.785156 11.273438 28.746094 10.234375 28.273438 L 12.964844 18.261719 C 13.109375 17.730469 12.796875 17.179688 12.261719 17.035156 Z M 39.796875 28.121094 L 36.964844 17.738281 C 36.820313 17.203125 36.265625 16.890625 35.738281 17.035156 C 35.203125 17.179688 34.890625 17.730469 35.035156 18.261719 L 37.765625 28.273438 C 36.726563 28.746094 36 29.785156 36 31 C 36 31.554688 36.445313 32 37 32 C 37.554688 32 38 31.554688 38 31 C 38 30.449219 38.449219 30 39 30 C 39.550781 30 40 30.449219 40 31 C 40 31.554688 40.445313 32 41 32 C 41.554688 32 42 31.554688 42 31 C 42 29.621094 41.0625 28.472656 39.796875 28.121094 Z M 31.375 15 L 16.625 15 C 15.0625 15 13.84375 16.347656 14 17.898438 L 15.472656 32.625 C 15.605469 33.972656 16.742188 35 18.097656 35 L 29.902344 35 C 31.257813 35 32.394531 33.972656 32.527344 32.625 L 34 17.898438 C 34.15625 16.347656 32.9375 15 31.375 15 Z "/>
<path style=" stroke:none;fill-rule:nonzero;fill:#607D8B;fill-opacity:1;" d="M 20 20 L 28 20 L 28 25 L 20 25 Z "/>
<path style=" stroke:none;fill-rule:nonzero;fill:#455A64;fill-opacity:1;" d="M 27 10 L 21 10 C 19.898438 10 19 9.101563 19 8 C 19 6.898438 19.898438 6 21 6 L 27 6 C 28.101563 6 29 6.898438 29 8 C 29 9.101563 28.101563 10 27 10 Z M 14 18 C 14 16.894531 13.105469 16 12 16 C 10.894531 16 10 16.894531 10 18 C 10 19.105469 10.894531 20 12 20 C 13.105469 20 14 19.105469 14 18 Z M 28 35 L 20 35 L 20 37 L 28 37 Z M 28 39 L 26 39 C 25.449219 39 25 39.449219 25 40 C 25 40.550781 25.449219 41 26 41 L 28 41 Z M 23 40 C 23 39.449219 22.550781 39 22 39 L 20 39 L 20 41 L 22 41 C 22.550781 41 23 40.550781 23 40 Z M 36 20 C 37.105469 20 38 19.105469 38 18 C 38 16.894531 37.105469 16 36 16 C 34.894531 16 34 16.894531 34 18 C 34 19.105469 34.894531 20 36 20 Z M 25 13.277344 L 25 12 L 23 12 L 23 13.277344 C 22.40625 13.621094 22 14.261719 22 15 L 26 15 C 26 14.261719 25.59375 13.625 25 13.277344 Z "/>
<path style=" stroke:none;fill-rule:nonzero;fill:#18FFFF;fill-opacity:1;" d="M 20 8 C 20 7.449219 20.449219 7 21 7 C 21.550781 7 22 7.449219 22 8 C 22 8.550781 21.550781 9 21 9 C 20.449219 9 20 8.550781 20 8 Z M 27 9 C 27.550781 9 28 8.550781 28 8 C 28 7.449219 27.550781 7 27 7 C 26.449219 7 26 7.449219 26 8 C 26 8.550781 26.449219 9 27 9 Z "/>
</g>
</svg>
